<?xml version="1.0" encoding="utf-8"?>
<!-- Generator: Adobe Illustrator 26.0.3, SVG Export Plug-In . SVG Version: 6.00 Build 0)  -->
<svg version="1.1" id="Calque_1" xmlns="http://www.w3.org/2000/svg" xmlns:xlink="http://www.w3.org/1999/xlink" x="0px" y="0px"
	 viewBox="0 0 403.3 516.9" style="enable-background:new 0 0 403.3 516.9;" xml:space="preserve">
<style type="text/css">
	.st0{fill:#FFFFFF;}
	.st1{fill:#009EE2;}
	.st2{fill:#119239;}
	.st3{fill:#FBDD59;}
	.st4{fill:#DA1817;}
	.st5{fill:#1D1D1B;}
	.st6{fill:#EB639C;}
</style>
<rect class="st0" width="403.3" height="516.9"/>
<path class="st1" d="M270,449.1c-36.7-0.1-66.5-29.9-66.5-66.6h-69c0,74.2,60.2,134.4,134.4,134.4s134.4-60.2,134.4-134.4h-66.6
	c0,36.8-29.8,66.6-66.6,66.6C270.1,449.1,270.1,449.1,270,449.1L270,449.1z"/>
<path class="st2" d="M284.8,232v71.5H253V232H284.8z M190.2,252l46,54.7L212,327l-46-54.6L190.2,252z M301.5,306.7l46.1-54.7
	l24.3,20.5l-46.1,54.6L301.5,306.7z"/>
<circle class="st3" cx="80.7" cy="169.8" r="80.7"/>
<path class="st4" d="M66.6,380c0,36.8-29.8,66.6-66.6,66.6c0,0,0,0,0,0v69c74.2,0,134.4-60.2,134.4-134.4l0,0
	C134.4,307,74.2,246.8,0,246.8v66.6C36.8,313.4,66.6,343.2,66.6,380L66.6,380z"/>
<circle class="st5" cx="268.9" cy="377.9" r="53.1"/>
<path class="st2" d="M0,80.8C0,36.2,36.1,0.1,80.7,0.1c44.6,0,80.7,36.1,80.7,80.7"/>
<path class="st3" d="M265,0.1c2.7,74.5,63.8,133.4,138.3,133.5V0L265,0.1z"/>
<path class="st1" d="M391.2,227.7c-2.7-74.5-63.9-133.4-138.4-133.4v133.4H391.2z"/>
<path class="st4" d="M239.2,0v133.7h-59.3V0H239.2z"/>
<circle class="st6" cx="210.2" cy="177.7" r="31.7"/>
</svg>
