<svg xmlns="http://www.w3.org/2000/svg" viewBox="0 0 403.3 516.9">
  <defs>
    <style>
      .cls-1{fill:#009ee2}.cls-2{fill:#119239}.cls-3{fill:#fbdd59}.cls-4{fill:#da1817}
    </style>
  </defs>
  <path class="cls-1" d="M270 449.1a66.6 66.6 0 0 1-66.5-66.6h-69a134.4 134.4 0 1 0 268.8 0h-66.6a66.6 66.6 0 0 1-66.6 66.6Z"/>
  <path class="cls-2" d="M284.8 232v71.5H253V232zm-94.6 20 46 54.7L212 327l-46-54.6zm111.3 54.7 46.1-54.7 24.3 20.5-46.1 54.6z"/>
  <circle class="cls-3" cx="80.7" cy="169.8" r="80.7"/>
  <path class="cls-4" d="M66.6 380A66.6 66.6 0 0 1 0 446.6v69a134.4 134.4 0 0 0 134.4-134.4A134.4 134.4 0 0 0 0 246.8v66.6A66.6 66.6 0 0 1 66.6 380Z"/>
  <circle cx="268.9" cy="377.9" r="53.1" style="fill:#1d1d1b"/>
  <path class="cls-2" d="M0 80.8a80.7 80.7 0 0 1 161.4 0"/>
  <path class="cls-3" d="M265 .1a138.5 138.5 0 0 0 138.3 133.5V0Z"/>
  <path class="cls-1" d="M391.2 227.7A138.5 138.5 0 0 0 252.8 94.3v133.4Z"/>
  <path class="cls-4" d="M239.2 0v133.7h-59.3V0z"/>
  <circle cx="210.2" cy="177.7" r="31.7" style="fill:#eb639c"/>
</svg>
