<?xml version="1.0" standalone="no"?>
<!DOCTYPE svg PUBLIC "-//W3C//DTD SVG 20010904//EN"
 "http://www.w3.org/TR/2001/REC-SVG-20010904/DTD/svg10.dtd">
<svg version="1.0" xmlns="http://www.w3.org/2000/svg"
 width="500.000000pt" height="500.000000pt" viewBox="0 0 500.000000 500.000000"
 preserveAspectRatio="xMidYMid meet">
<metadata>
Created by potrace 1.14, written by Peter Selinger 2001-2017
</metadata>
<g transform="translate(0.000000,500.000000) scale(0.100000,-0.100000)"
fill="#000000" stroke="none">
<path d="M0 2500 l0 -2500 2500 0 2500 0 0 2500 0 2500 -2500 0 -2500 0 0
-2500z m2162 240 l3 -379 240 209 240 209 103 1 c56 0 102 -2 102 -4 0 -1 -94
-83 -210 -182 -206 -176 -209 -179 -191 -199 24 -27 392 -465 410 -487 13 -17
8 -18 -77 -18 l-90 0 -182 220 -182 220 -27 -23 c-15 -12 -52 -44 -84 -71
l-57 -50 0 -148 0 -148 -65 0 -65 0 0 615 0 615 65 0 65 0 2 -380z m1078 155
l0 -215 63 44 c252 172 584 42 651 -254 52 -226 -26 -449 -189 -545 -144 -84
-348 -70 -482 32 l-43 33 0 -50 0 -50 -65 0 -65 0 0 610 0 610 65 0 65 0 0
-215z m-1690 -370 l0 -505 170 0 170 0 0 -60 0 -60 -425 0 -425 0 0 60 0 60
190 0 190 0 0 430 0 430 -122 -78 c-68 -43 -140 -88 -160 -101 l-38 -23 0 70
0 70 168 106 c162 102 169 106 225 106 l57 0 0 -505z"/>
<path d="M3490 2670 c-96 -16 -180 -74 -223 -154 -20 -37 -22 -56 -22 -181 0
-161 10 -191 86 -259 60 -55 118 -78 198 -78 196 -2 303 116 305 332 1 119
-19 181 -80 249 -70 78 -158 108 -264 91z"/>
</g>
</svg>
